<?xml version="1.0" encoding="utf-8"?>
<!-- Generator: Adobe Illustrator 18.1.1, SVG Export Plug-In . SVG Version: 6.00 Build 0)  -->
<svg version="1.1" id="Слой_1" xmlns="http://www.w3.org/2000/svg" xmlns:xlink="http://www.w3.org/1999/xlink" x="0px" y="0px"
	 viewBox="0 67 491 365" enable-background="new 0 67 491 365" xml:space="preserve">
<g>
	<path fill="#FFFFFF" d="M456.6,411.8H40.4c-6.6,0-12-5.4-12-12V97.4c0-6.6,5.4-12,12-12h416.2c6.6,0,12,5.4,12,12v302.4
		C468.6,406.4,463.2,411.8,456.6,411.8z"/>
	<path fill="#1D1D1B" d="M446.7,76.9H53.3c-18.8,0-34,16.2-34,36.2v273.8c0,19.9,15.3,36.2,34,36.2h393.4c18.8,0,34-16.2,34-36.2
		V113.1C480.8,93.1,465.5,76.9,446.7,76.9z M301.3,250l150.6-108.7v217.4L301.3,250z M446.7,105.8c1,0,2.1,0.6,3,1.6L250,251.4
		L50.3,107.3c0.9-0.9,1.9-1.6,3-1.6H446.7z M48.1,358.7V141.3L198.7,250L48.1,358.7z M53.3,394.2c-1,0-2.1-0.6-3-1.6l173.1-124.9
		l18.2,13.1c0.4,0.3,0.9,0.4,1.4,0.7c0.4,0.3,0.9,0.5,1.3,0.7c1.8,0.8,3.8,1.4,5.7,1.4c0,0,0,0,0,0c0,0,0,0,0,0
		c1.9,0,3.9-0.5,5.7-1.4c0.5-0.2,0.9-0.4,1.3-0.7c0.5-0.3,1-0.4,1.4-0.7l18.2-13.1l173.1,124.9c-0.9,0.9-1.9,1.6-3,1.6H53.3z"/>
</g>
</svg>
